ply
format ascii 1.0
element vertex 18
property float x
property float y
property float z
property uchar diffuse_red
property uchar diffuse_green
property uchar diffuse_blue
end_header
-0.160989 0.0525522 -0.0574401 255 0 255
0.818117 1.59709e-08 0.153913 0 255 0
0.791204 -0.0115708 0.137853 255 0 255
1.89104 -5.28693e-09 0.488893 255 0 255
1.91134 -0.00311416 0.479156 255 0 255
2.98549 -3.49602e-08 0.961945 255 0 255
3.5192 0.000455754 1.13429 255 0 255
3.00993 0.00380185 0.973008 255 0 255
3.5328 -0.000270693 1.13057 255 0 255
3.53719 0.00948277 1.13196 255 0 255
3.4981 0.00806591 1.12132 0 255 0
2.96817 0.000349897 0.959749 255 0 255
3.48433 1.89493e-05 1.12548 255 0 255
1.87824 -0.00524402 0.466933 0 255 0
3.49123 -0.0145561 1.10882 255 0 255
2.95812 -0.00887304 0.94805 255 0 255
1.87154 -0.0156118 0.47182 255 0 255
3.44538 -0.00126709 1.09067 255 0 255
